<svg id="Ñëîé_1" data-name="Ñëîé 1" xmlns="http://www.w3.org/2000/svg" viewBox="0 0 24 28"><defs><style>.cls-1{fill:#fff;}</style></defs><path class="cls-1" d="M24,20.55c-.2.49-.39,1-.62,1.5a17,17,0,0,1-3,4.41,4.83,4.83,0,0,1-1.85,1.3,3.57,3.57,0,0,1-2.35,0c-.54-.16-1.07-.37-1.61-.55a6.14,6.14,0,0,0-2.29-.35,7,7,0,0,0-2.07.45,12.58,12.58,0,0,1-1.89.6,3.27,3.27,0,0,1-2.67-.64,10.77,10.77,0,0,1-2.06-2.15,16.49,16.49,0,0,1-2.11-3.48A17.13,17.13,0,0,1,.16,17.13a11.13,11.13,0,0,1,.32-5.19A7.4,7.4,0,0,1,4.33,7.41a6.67,6.67,0,0,1,3.32-.7,8.25,8.25,0,0,1,2.19.53c.59.2,1.19.39,1.77.6A2.13,2.13,0,0,0,13,7.74c.82-.27,1.64-.56,2.47-.81A6.51,6.51,0,0,1,18.4,6.7a8,8,0,0,1,2.84.92,6.37,6.37,0,0,1,2,1.81,5.86,5.86,0,0,0-3.16,5.77A6.2,6.2,0,0,0,24,20.55Z"/><path class="cls-1" d="M18,0c0,.38,0,.75,0,1.12a6,6,0,0,1-1.52,3.35,6.62,6.62,0,0,1-2.17,1.72A4.47,4.47,0,0,1,12,6.61a3.83,3.83,0,0,1,0-1.17,6.44,6.44,0,0,1,4-5A6,6,0,0,1,17.79,0Z"/></svg>