<svg id="Ñëîé_1" data-name="Ñëîé 1" xmlns="http://www.w3.org/2000/svg" viewBox="0 0 22 24"><defs><style>.cls-1{fill:#00f076;}.cls-2{fill:#f1314b;}.cls-3{fill:#fff;}.cls-4{fill:#00d3ff;}.cls-5{fill:#ffc400;}</style></defs><path class="cls-1" d="M12.39,12,6.2,6.83,0,1.66V1.14a1.15,1.15,0,0,1,1.7-1L11.61,5.6l4.63,2.56Z"/><path class="cls-2" d="M0,22.86v-.52l6.2-5.17L12.36,12l3.85,3.83-4.6,2.54L1.7,23.86A1.15,1.15,0,0,1,0,22.86Z"/><polygon class="cls-3" points="0 22.34 0 1.66 6.2 6.83 12.39 11.99 12.4 12 12.36 12.03 6.2 17.17 0 22.34"/><polygon class="cls-4" points="0 22.34 0 1.66 6.2 6.83 12.39 11.99 12.4 12 12.36 12.03 6.2 17.17 0 22.34"/><path class="cls-5" d="M16.21,15.86,12.36,12l0,0h0l3.85-3.83L21.41,11a1.14,1.14,0,0,1,0,2Z"/><polygon class="cls-3" points="12.36 12.03 12.35 12.02 12.39 11.99 12.4 12 12.36 12.03"/></svg>